<svg xmlns="http://www.w3.org/2000/svg" width="188" height="51" viewBox="0 0 188 51" fill="none"><path d="M31.3148 9.82785C30.8464 9.00202 30.2948 8.31209 29.6702 7.75805C32.9282 8.3539 36.2174 9.15883 39.3921 9.83831C44.4299 10.9046 50.8417 12.4831 54.5577 8.25982C55.838 6.85904 56.348 4.85195 56.3272 3.11666C56.3168 2.18629 55.9941 0.38828 55.1198 0.336012C54.5681 0.336012 54.183 0.53463 53.9748 0.931865C53.7562 1.3291 53.496 1.76815 53.1837 2.24902C52.8715 2.72988 52.3927 3.16893 51.7681 3.56617C48.4581 5.28055 40.5266 2.97031 36.5713 2.24902C25.3818 -0.19712 8.14483 -2.23557 1.33748 9.00202C-1.21268 13.5598 -0.130164 20.8982 6.10471 20.9191C7.2809 20.9191 8.22811 20.6159 8.9359 19.9992C10.1329 18.9747 10.9864 17.5008 10.8199 16.0373C10.7366 15.431 10.466 15.1174 9.9976 15.1174C9.23776 15.0965 8.96713 15.7968 8.61323 16.3613C8.24892 16.9676 7.85339 17.6262 7.05191 17.6053C6.01103 17.6053 5.64672 16.6854 5.63631 15.7132C5.63631 15.1592 5.89653 14.3961 6.42738 13.403C7.90543 10.8314 10.5389 9.05429 13.7344 7.9044C16.9403 6.66042 21.9469 6.68133 25.7773 7.13083C25.7982 8.27027 25.5171 9.49334 24.8926 11.1764C23.5186 14.856 21.6659 18.7552 19.886 22.6544C17.9291 26.8985 16.0868 31.4981 14.8793 35.9095C13.3492 41.1259 13.4221 47.5652 18.6161 50.3145C19.9484 51.0358 22.4361 51.3808 23.5082 50.3773C23.9246 49.9591 24.1223 49.5828 24.1223 49.2274C24.1536 48.1925 23.3001 48.4538 22.8317 47.8057C22.6755 47.6071 22.5923 47.2307 22.5923 46.6871C22.6131 39.8087 24.7989 32.993 27.3074 26.7208C28.7543 23.1875 30.2219 19.7065 31.3148 16.3718C32.0747 13.9047 32.4494 11.929 31.3148 9.82785Z" fill="#C92C37"></path><path d="M186.374 18.8599C185.219 18.1909 184.189 19.0062 183.595 20.0098C181.555 23.4386 180.754 24.6825 178.557 28.2054C177.829 29.303 176.319 28.7385 176.205 27.6618C176.174 27.3796 176.257 27.0973 176.403 26.8569L181.472 18.6299C181.545 18.5149 181.597 18.3999 181.649 18.285C181.961 17.6577 181.732 16.7169 181.264 16.4242C180.577 15.9852 179.515 16.2674 179.14 16.8946C177.1 20.198 176.049 21.9437 173.946 25.3307C173.644 25.8011 173.186 25.9683 172.76 25.9265C171.833 25.8324 171.344 24.7557 171.833 23.9612C172.833 22.32 177.215 15.1489 177.194 15.0757C177.714 14.0931 177.319 13.0373 176.59 12.6087C175.622 12.0964 174.592 12.525 173.853 13.539C171.625 17.1769 169.366 20.8043 167.16 24.463C166.743 25.1529 166.462 25.9892 166.327 26.7837C165.994 28.8012 166.587 30.6306 167.67 32.3241C167.795 32.5227 167.92 32.6586 167.732 32.92C165.869 35.3765 164.079 38.1154 161.32 39.6311C160.821 39.882 160.404 39.9343 160.092 39.7879C158.791 39.1398 159.915 35.1361 160.352 33.4949C161.123 31.1428 161.914 28.8117 162.705 26.4701C163.194 25.132 163.694 23.7626 164.214 22.3828C164.235 22.3618 164.266 22.3514 164.297 22.3305H166.473C166.983 22.3305 167.451 22.111 167.888 21.6824C168.648 20.9297 169.273 19.7694 169.179 18.7554C169.148 18.4208 169.012 18.2118 168.763 18.1177C168.607 18.0027 168.398 17.9295 168.18 17.9295C167.43 17.9295 166.681 17.9295 165.869 17.9295C166.754 15.5043 167.514 13.2672 168.169 11.2392C168.794 9.30533 169.127 7.82092 169.169 6.76511C169.408 3.87993 167.097 0.660227 164.12 0.0330129C163.34 -0.113337 162.955 0.231631 162.84 0.973834C162.663 2.05055 162.559 3.16908 162.153 4.16217C160.332 8.65721 158.427 13.1209 156.522 17.595C156.449 17.7518 156.168 17.9086 155.981 17.9086C155.013 17.94 154.045 17.9191 153.066 17.9191C151.463 17.9191 150.433 18.7345 150.079 20.3129C149.892 21.1283 150.016 21.6719 150.454 21.9751C150.651 22.205 150.964 22.32 151.401 22.32H154.492C153.493 25.3307 152.317 28.2786 151.297 31.2892C150.839 32.6482 149.808 33.819 148.986 34.927C147.841 36.4428 145.083 39.7566 143.209 39.8402C142.699 39.8402 142.387 39.6416 142.262 39.2444C141.846 37.4777 143.001 35.3034 143.615 33.5994C143.886 32.9095 144.135 32.2927 144.354 31.7387C144.573 31.1847 144.677 30.777 144.677 30.4947C144.708 27.7663 142.72 26.2192 140.086 26.2401C138.702 26.3342 137.224 28.1113 136.318 29.4912C134.934 31.4983 129.251 39.767 127.252 39.8402C125.701 39.8298 126.274 36.8609 126.607 35.5229C127.658 31.6133 129.927 26.9928 133.144 24.4003C134.31 23.4177 136.204 22.7173 137.38 23.449C137.921 23.8253 138.296 24.2853 138.796 24.693C139.035 24.8916 139.327 24.9857 139.68 24.9857C140.43 24.9857 140.95 24.6198 141.242 23.8881C141.908 22.0796 140.919 20.3548 139.243 19.1526C138.244 18.4208 136.86 18.055 135.09 18.055C128.991 18.1595 123.557 23.3131 120.726 28.6653C118.27 33.3485 113.627 38.6694 108.641 40.5929C103.177 42.4223 101.001 38.8785 102.282 33.7876C103.364 34.6448 104.686 35.042 106.227 35.0316C112.399 35.2197 116.115 30.0034 116.417 24.3794C116.458 23.5954 116.334 22.8113 116.063 22.0378C115.053 19.3303 112.337 17.9504 109.412 17.9818C105.373 17.9818 101.428 20.3025 98.5761 23.334C96.6713 25.3516 96.0884 26.4701 94.1003 31.2369C93.5591 32.5332 91.113 36.2024 90.5613 36.7982C89.229 38.1676 87.522 39.8716 85.6172 39.9343C82.838 39.997 80.8395 37.7181 79.9027 35.3243C78.7369 32.7109 79.299 29.6271 81.2871 27.5782C82.2343 26.606 83.2231 25.7488 84.2328 25.038C86.1168 23.7208 88.2506 22.7277 90.5093 22.7277C91.3732 22.7277 91.8937 22.4873 92.0706 22.0169C92.487 20.7729 91.2691 19.5289 90.1242 18.8181C85.638 16.4347 81.0061 20.4175 77.9042 23.7835C79.07 20.4593 80.2774 17.0619 81.2038 13.8213C82.6507 8.36451 84.4722 3.83811 78.5808 0.691588C77.5712 0.231631 76.0411 -0.217873 76.0203 1.19336C76.0203 2.3328 75.7184 3.87993 75.1043 5.83475C73.7095 10.3089 71.6277 15.1175 69.775 19.8216C67.5371 25.0171 66.3297 30.4738 62.7698 34.9061C61.6249 36.4219 58.8665 39.7357 56.993 39.8193C56.4829 39.8193 56.1707 39.6207 56.0458 39.2235C55.6294 37.4568 56.7848 35.2825 57.3989 33.5785C57.6695 32.8886 57.9193 32.2718 58.1379 31.7178C58.3565 31.1638 58.4606 30.7561 58.4606 30.4738C58.4918 27.7454 56.5037 26.1983 53.8703 26.2192C52.4859 26.3133 51.0079 28.0904 50.1023 29.4703C48.2079 32.2196 46.4697 34.6552 44.3255 37.1327C43.4927 38.0527 41.9939 39.788 41.0259 39.8193C37.3411 39.5475 44.1173 22.8323 50.0399 23.1354C51.2369 23.0831 51.7573 24.0344 52.5692 24.6721C52.8086 24.8707 53.1001 24.9648 53.454 24.9648C54.2034 24.9648 54.7238 24.5989 55.0153 23.8672C55.6815 22.0587 54.6822 20.3339 53.0168 19.1317C50.2481 17.2919 46.0845 17.9295 42.9411 19.7275C36.3107 23.5117 31.762 31.3101 31.7828 39.1607C31.7828 40.4674 32.0222 41.6382 32.4906 42.6836C33.6981 45.5061 36.4356 47.4922 39.4437 47.5027C43.0348 47.5131 46.3343 42.8613 48.0414 39.9866C48.4682 42.5059 49.4466 44.398 50.9559 45.6315C53.1625 47.44 56.0562 48.0985 58.6376 46.8755C60.6777 45.9033 62.3431 44.1994 63.7275 42.3595C64.3624 45.2029 66.923 47.6177 69.8895 47.6177C70.8887 47.649 71.5757 46.9905 71.9504 46.196C72.1065 45.7674 72.2002 45.2865 72.2419 44.7743C72.3043 42.3282 73.6158 39.3698 74.8336 36.8505C75.6351 40.572 77.6128 44.6384 81.1102 46.5828C82.9837 47.649 85.8774 48.0672 88.032 47.0009C90.5718 45.7988 92.5598 43.4885 94.142 41.1678C96.4215 46.7814 103.499 48.6003 108.818 46.8859C112.493 45.7465 115.615 43.2794 118.103 40.4361C118.551 44.2516 121.85 47.5131 125.67 47.5027C129.261 47.5131 132.561 42.8613 134.268 39.9866C134.695 42.5059 135.673 44.398 137.182 45.6315C139.389 47.44 142.283 48.0985 144.864 46.8755C147.071 45.8197 148.83 43.9171 150.297 41.9205C151.932 45.5792 155.793 47.9417 159.593 47.555C160.071 47.555 160.55 47.4922 161.008 47.3772C162.517 47.1159 163.735 46.1646 164.849 45.1402C167.805 42.4327 169.741 39.1085 171.552 35.4393C171.594 35.3556 171.636 35.272 171.677 35.1988C171.771 35.2302 171.875 35.272 171.969 35.2929L172.052 35.3452C174.581 35.8679 177.569 35.3243 179.338 33.2858C179.546 33.0558 179.734 32.805 179.9 32.5227C182.18 28.8535 184.532 25.0484 186.77 21.3478C186.864 21.2224 187.551 19.623 186.374 18.8599ZM106.924 25.4143C108.027 24.4107 109.141 23.909 110.286 23.909C110.879 23.909 111.181 24.2017 111.202 24.7975C111.202 26.3237 109.963 27.6827 108.61 28.6444C107.757 29.2403 106.789 29.5434 105.717 29.533C104.863 29.4912 104.405 28.5085 104.894 27.7977C105.498 26.8882 106.185 26.0938 106.924 25.4143Z" fill="#C92C37"></path></svg>